<svg xmlns="http://www.w3.org/2000/svg" width="500" height="500" viewBox="0 0 500 500" version="1.1"><path d="M 84 250 L 84 325 258.500 325 L 433 325 433 250 L 433 175 258.500 175 L 84 175 84 250 M 86 250 L 86 323 258.500 323 L 431 323 431 250 L 431 177 258.500 177 L 86 177 86 250 M 292 229 L 292 236 300 236 L 308 236 308 255 L 308 274 315 274 L 322 274 322 255 L 322 236 330 236 L 338 236 338 229 L 338 222 315 222 L 292 222 292 229 M 346 248 L 346 274 353.500 274 L 361 274 361 248 L 361 222 353.500 222 L 346 222 346 248 M 372 248 L 372 274 390 274 L 408 274 408 267 L 408 260 397.500 260 L 387 260 387 241 L 387 222 379.500 222 L 372 222 372 248" stroke="none" fill="#040404" fill-rule="evenodd"/><path d="M 100 250 L 100 310 189 310 L 278 310 278 250 L 278 190 189 190 L 100 190 100 250 M 171.857 223.328 C 158.170 228.448, 152.477 238.655, 154.459 254.520 C 155.696 264.421, 164.423 273.275, 174.500 274.854 C 187.400 276.875, 198.442 271.982, 203.498 262.004 L 206.034 257 202.584 257 C 200.029 257, 198.972 257.511, 198.509 258.972 C 196.614 264.943, 184.376 270.783, 176.785 269.339 C 167.028 267.483, 160.011 258.765, 160.011 248.500 C 160.011 237.462, 169.269 228.029, 180.125 228.006 C 186.459 227.992, 189.567 229.413, 194.706 234.672 C 198.299 238.348, 200.701 240, 202.456 240 C 203.855 240, 205 239.753, 205 239.450 C 205 238.037, 201.505 232.215, 199.139 229.688 C 193.440 223.599, 179.696 220.395, 171.857 223.328 M 234 222.875 C 221.326 227.048, 214.733 235.988, 214.733 249 C 214.733 256.736, 216.475 261.306, 221.578 266.954 C 226.189 272.059, 228.874 273.506, 236.270 274.873 C 254.385 278.222, 268.034 266.957, 267.978 248.703 C 267.930 232.982, 258.736 223.307, 243 222.419 C 239.425 222.217, 235.375 222.423, 234 222.875 M 338.336 229 C 338.336 233.125, 338.513 234.813, 338.728 232.750 C 338.944 230.688, 338.944 227.313, 338.728 225.250 C 338.513 223.188, 338.336 224.875, 338.336 229 M 112 249 L 112 275 128 275 L 144 275 144 272 L 144 269 131.500 269 L 119 269 119 260 L 119 251 130.500 251 L 142 251 142 248.500 L 142 246 130.500 246 L 119 246 118.999 237.250 L 118.998 228.500 131.163 228.500 L 143.328 228.500 143.698 225.750 L 144.068 223 128.034 223 L 112 223 112 249 M 233.500 229.499 C 220.182 234.197, 216.878 254.339, 227.759 264.494 C 233.218 269.589, 244.067 270.953, 251.075 267.426 C 255.233 265.333, 260.826 258.442, 261.565 254.503 C 264.913 236.658, 250.246 223.591, 233.500 229.499 M 322.419 255 C 322.419 265.725, 322.566 270.113, 322.746 264.750 C 322.925 259.387, 322.925 250.613, 322.746 245.250 C 322.566 239.887, 322.419 244.275, 322.419 255 M 172.329 322.750 C 220.085 322.894, 297.935 322.894, 345.329 322.750 C 392.723 322.606, 353.650 322.489, 258.500 322.489 C 163.350 322.489, 124.573 322.606, 172.329 322.750" stroke="none" fill="#456250" fill-rule="evenodd"/></svg>