<?xml version="1.0" standalone="no"?>
<!DOCTYPE svg PUBLIC "-//W3C//DTD SVG 20010904//EN"
 "http://www.w3.org/TR/2001/REC-SVG-20010904/DTD/svg10.dtd">
<svg version="1.0" xmlns="http://www.w3.org/2000/svg"
 width="1753.000000pt" height="762.000000pt" viewBox="0 0 1753.000000 762.000000"
 preserveAspectRatio="xMidYMid meet">

<g transform="translate(0.000000,762.000000) scale(0.100000,-0.100000)"
fill="#000000" stroke="none">
<path d="M30 3800 l0 -3750 8730 0 8730 0 0 3750 0 3750 -8730 0 -8730 0 0
-3750z m17370 0 l0 -3650 -8635 0 -8635 0 0 3650 0 3650 8635 0 8635 0 0
-3650z"/>
<path d="M820 3800 l0 -3020 4445 0 4445 0 0 3020 0 3020 -4445 0 -4445 0 0
-3020z m4295 1391 c88 -15 258 -72 350 -119 243 -122 445 -325 569 -570 37
-73 86 -199 86 -221 0 -8 -51 -11 -173 -11 l-174 0 -27 64 c-106 249 -333 436
-625 513 -84 23 -116 26 -266 26 -143 1 -184 -2 -259 -21 -354 -88 -606 -341
-706 -707 -34 -125 -39 -384 -10 -525 75 -367 325 -646 665 -745 292 -84 633
-37 878 121 158 102 246 202 328 370 l51 104 173 0 174 0 -29 -82 c-91 -266
-228 -454 -456 -626 -72 -55 -220 -135 -314 -171 -218 -84 -507 -112 -742 -72
-291 50 -510 161 -709 360 -199 199 -310 420 -360 713 -18 106 -21 149 -16
313 7 260 41 404 142 606 201 406 599 666 1066 697 114 8 275 0 384 -17z
m3081 -1 c131 -23 240 -58 349 -112 370 -184 619 -513 702 -926 25 -125 25
-462 0 -586 -111 -548 -499 -937 -1038 -1041 -117 -22 -341 -30 -472 -16 -724
79 -1211 667 -1174 1416 27 530 275 927 719 1151 252 127 591 169 914 114z
m-5181 -180 l0 -155 -627 -3 -628 -2 0 -405 0 -405 583 -2 582 -3 3 -152 3
-153 -586 0 -585 0 0 -435 0 -435 650 0 650 0 0 -155 0 -155 -815 0 -815 0 0
1303 c0 717 3 1307 7 1310 3 4 360 6 792 5 l786 -3 0 -155z"/>
<path d="M7750 4869 c-333 -43 -615 -250 -755 -551 -116 -252 -123 -616 -16
-883 89 -220 269 -411 485 -511 261 -120 642 -120 903 1 207 96 386 279 474
485 116 273 114 648 -5 905 -187 406 -601 617 -1086 554z"/>
<path d="M10437 5193 c-4 -3 -7 -161 -7 -350 l0 -343 395 0 395 0 0 -950 0
-950 375 0 375 0 0 950 0 950 395 0 395 0 -2 348 -3 347 -1156 3 c-635 1
-1159 -1 -1162 -5z"/>
<path d="M13140 3900 l0 -1300 375 0 375 0 -2 1298 -3 1297 -372 3 -373 2 0
-1300z"/>
<path d="M14440 3900 l0 -1300 905 0 905 0 0 345 0 345 -530 0 -530 0 -2 953
-3 952 -372 3 -373 2 0 -1300z"/>
</g>
</svg>
